<svg width="20" height="20" viewBox="0 0 20 20" fill="none" xmlns="http://www.w3.org/2000/svg">
<rect width="20" height="20" rx="10" fill="black" fill-opacity="0.3"/>
<path d="M4 14.0156C4.96094 14.6953 6.71875 15 8.5 15C10.2578 15 12.0156 14.6953 13 14.0156V15C13 15.8438 10.9844 16.5 8.5 16.5C6.01562 16.5 4 15.8438 4 15V14.0156ZM11.5 7.5C9.01562 7.5 7 6.84375 7 6C7 5.17969 9.01562 4.5 11.5 4.5C13.9844 4.5 16 5.17969 16 6C16 6.84375 13.9844 7.5 11.5 7.5ZM4 11.5547C4.96094 12.3516 6.71875 12.75 8.5 12.75C10.2578 12.75 12.0156 12.3516 13 11.5547V12.75C13 13.5938 10.9844 14.25 8.5 14.25C6.01562 14.25 4 13.5938 4 12.75V11.5547ZM13.75 11.8125V10.3125C14.6406 10.1484 15.4375 9.89062 16 9.51562V10.5C16 11.0625 15.0859 11.5547 13.75 11.8125ZM8.5 8.25C10.9844 8.25 13 9.09375 13 10.125C13 11.1797 10.9844 12 8.5 12C6.01562 12 4 11.1797 4 10.125C4 9.09375 6.01562 8.25 8.5 8.25ZM13.6328 9.58594C13.4219 9.02344 12.9062 8.57812 12.2266 8.25C13.7266 8.15625 15.1562 7.85156 16 7.26562V8.25C16 8.83594 15.0391 9.32812 13.6328 9.58594Z" fill="#F8C34E"/>
</svg>
