<svg width="18" height="16" viewBox="0 0 18 16" fill="none" xmlns="http://www.w3.org/2000/svg">
<path d="M0.625 2.8125C0.273438 2.8125 0 2.53906 0 2.1875V0.625C0 0.3125 0.273438 0 0.625 0H16.875C17.1875 0 17.5 0.3125 17.5 0.625V2.1875C17.5 2.53906 17.1875 2.8125 16.875 2.8125H0.625ZM0.625 9.0625C0.273438 9.0625 0 8.78906 0 8.4375V6.875C0 6.5625 0.273438 6.25 0.625 6.25H16.875C17.1875 6.25 17.5 6.5625 17.5 6.875V8.4375C17.5 8.78906 17.1875 9.0625 16.875 9.0625H0.625ZM0.625 15.3125C0.273438 15.3125 0 15.0391 0 14.6875V13.125C0 12.8125 0.273438 12.5 0.625 12.5H16.875C17.1875 12.5 17.5 12.8125 17.5 13.125V14.6875C17.5 15.0391 17.1875 15.3125 16.875 15.3125H0.625Z" fill="#9CA3AF"/>
</svg>
