<svg width="20" height="24" viewBox="0 0 20 24" fill="none" xmlns="http://www.w3.org/2000/svg">
<path d="M6 8C6 7.44688 6.44688 7 7 7C7.55312 7 8 7.44688 8 8V8.24375C8 9.10938 7.925 9.97188 7.77812 10.8219L5.14062 11.6125C3.87188 11.9938 3.00312 13.1625 3.00312 14.4875V16.7344C3.00312 17.9844 4.01875 19 5.26875 19C6.08125 19 6.83125 18.5656 7.23438 17.8594L7.66875 17.1C8.50625 15.6313 9.12187 14.0469 9.49375 12.3969L12.4438 11.5125L12.0531 12.6844C11.95 12.9906 12.0031 13.325 12.1906 13.5844C12.3781 13.8438 12.6813 14 13.0031 14H17C17.5531 14 18 13.5531 18 13C18 12.4469 17.5531 12 17 12H14.3875L14.95 10.3156C15.0687 9.9625 14.9781 9.57188 14.7188 9.30312C14.4594 9.03437 14.0719 8.93438 13.7125 9.04063L9.8875 10.1906C9.9625 9.54375 10 8.89688 10 8.24375V8C10 6.34375 8.65625 5 7 5C5.34375 5 4 6.34375 4 8V9C4 9.55312 4.44688 10 5 10C5.55312 10 6 9.55312 6 9V8ZM5.7125 13.5312L7.24375 13.0719C6.91875 14.1281 6.47813 15.1469 5.92812 16.1094L5.49375 16.8687C5.44688 16.95 5.35938 17.0031 5.2625 17.0031C5.11562 17.0031 4.99687 16.8844 4.99687 16.7375V14.4875C4.99687 14.0469 5.2875 13.6562 5.70937 13.5281L5.7125 13.5312ZM0.75 15.5C0.334375 15.5 0 15.8344 0 16.25C0 16.6656 0.334375 17 0.75 17H2.00938C2.00313 16.9125 2 16.825 2 16.7344V15.5H0.75ZM19.25 17C19.6656 17 20 16.6656 20 16.25C20 15.8344 19.6656 15.5 19.25 15.5H9.55937C9.35 16.0094 9.11563 16.5094 8.8625 17H19.25Z" fill="#6B7280"/>
</svg>
