<svg width="20" height="20" viewBox="0 0 20 20" fill="none" xmlns="http://www.w3.org/2000/svg">
<path d="M14.1406 4.92188C12.9297 3.78906 11.3281 3.125 9.64844 3.125C6.64062 3.16406 4.02344 5.23438 3.32031 8.08594C3.24219 8.32031 3.04688 8.4375 2.85156 8.4375H0.625C0.3125 8.4375 0.078125 8.20312 0.15625 7.89062C0.976562 3.39844 4.92188 0 9.6875 0C12.2656 0 14.6094 1.05469 16.3672 2.69531L17.7734 1.28906C18.3594 0.703125 19.375 1.13281 19.375 1.95312V7.1875C19.375 7.73438 18.9453 8.125 18.4375 8.125H13.1641C12.3438 8.125 11.9141 7.14844 12.5 6.5625L14.1406 4.92188ZM0.9375 11.25H6.17188C6.99219 11.25 7.42188 12.2656 6.83594 12.8516L5.19531 14.4922C6.40625 15.625 8.00781 16.2891 9.6875 16.2891C12.6953 16.25 15.3125 14.1797 16.0156 11.3281C16.0938 11.0938 16.2891 10.9766 16.4844 10.9766H18.7109C19.0234 10.9766 19.2578 11.2109 19.1797 11.5234C18.3594 16.0156 14.4141 19.375 9.6875 19.375C7.07031 19.375 4.72656 18.3594 2.96875 16.7188L1.5625 18.125C0.976562 18.7109 0 18.2812 0 17.4609V12.1875C0 11.6797 0.390625 11.25 0.9375 11.25Z" fill="#9CA3AF"/>
</svg>
