<svg width="20" height="20" viewBox="0 0 20 20" fill="none" xmlns="http://www.w3.org/2000/svg">
<path d="M0 10C0 4.47715 4.47715 0 10 0C15.5228 0 20 4.47715 20 10C20 15.5228 15.5228 20 10 20C4.47715 20 0 15.5228 0 10Z" fill="#FFD700"/>
<g clip-path="url(#clip0_424_2585)">
<path d="M15 6.3125C15 6.66406 14.7207 6.98828 14.25 7.25C13.6816 7.56445 12.834 7.78711 11.8613 7.85352C11.7891 7.81836 11.7168 7.78516 11.6406 7.75586C10.8711 7.43359 9.84766 7.25 8.75 7.25C8.58789 7.25 8.42969 7.25391 8.27148 7.26172L8.25 7.25C7.7793 6.98828 7.5 6.66406 7.5 6.3125C7.5 5.44922 9.17969 4.75 11.25 4.75C13.3203 4.75 15 5.44922 15 6.3125ZM8.13867 7.89648C8.33789 7.88281 8.54297 7.875 8.75 7.875C9.96484 7.875 11.043 8.11523 11.7285 8.48828C12.2129 8.75195 12.5 9.08008 12.5 9.4375C12.5 9.51562 12.4863 9.5918 12.459 9.66602C12.3691 9.92383 12.127 10.1602 11.7754 10.3594C11.7734 10.3613 11.7695 10.3613 11.7676 10.3633C11.7617 10.3672 11.7559 10.3691 11.75 10.373C11.0664 10.752 9.97656 10.998 8.75 10.998C7.58594 10.998 6.54492 10.7773 5.85547 10.4297C5.81836 10.4121 5.7832 10.3926 5.74805 10.373C5.2793 10.1133 5 9.78906 5 9.4375C5 8.75781 6.04297 8.17773 7.5 7.96484C7.70508 7.93555 7.91797 7.91211 8.13867 7.89648ZM13.125 9.4375C13.125 9.00977 12.918 8.6582 12.6543 8.39453C13.207 8.30859 13.7129 8.17188 14.1426 7.99414C14.4609 7.86133 14.7578 7.69727 15 7.49609V8.1875C15 8.56445 14.6777 8.91211 14.1445 9.18164C13.8594 9.32617 13.5117 9.44922 13.1211 9.54297C13.123 9.50781 13.125 9.47461 13.125 9.43945V9.4375ZM12.5 11.3125C12.5 11.6641 12.2207 11.9883 11.75 12.25C11.7148 12.2695 11.6797 12.2871 11.6426 12.3066C10.9551 12.6543 9.91406 12.875 8.75 12.875C7.52344 12.875 6.43359 12.6289 5.75 12.25C5.2793 11.9883 5 11.6641 5 11.3125V10.6211C5.24414 10.8223 5.53906 10.9863 5.85742 11.1191C6.62891 11.4414 7.65234 11.625 8.75 11.625C9.84766 11.625 10.8711 11.4414 11.6426 11.1191C11.7949 11.0566 11.9414 10.9844 12.0801 10.9062C12.1992 10.8398 12.3105 10.7656 12.416 10.6875C12.4453 10.666 12.4727 10.6426 12.5 10.6211V10.6875V10.7988V11.3125ZM13.125 11.3125V10.6875V10.1816C13.4961 10.0996 13.8379 9.99609 14.1426 9.86914C14.4609 9.73633 14.7578 9.57227 15 9.37109V10.0625C15 10.2676 14.9023 10.4727 14.709 10.666C14.3906 10.9844 13.8301 11.2461 13.1211 11.416C13.123 11.3828 13.125 11.3477 13.125 11.3125ZM8.75 13.5C9.84766 13.5 10.8711 13.3164 11.6426 12.9941C11.9609 12.8613 12.2578 12.6973 12.5 12.4961V13.1875C12.5 14.0508 10.8203 14.75 8.75 14.75C6.67969 14.75 5 14.0508 5 13.1875V12.4961C5.24414 12.6973 5.53906 12.8613 5.85742 12.9941C6.62891 13.3164 7.65234 13.5 8.75 13.5Z" fill="#0F172A"/>
</g>
<defs>
<clipPath id="clip0_424_2585">
<rect width="10" height="10" fill="white" transform="translate(5 4.75)"/>
</clipPath>
</defs>
</svg>
